<?xml version="1.0" encoding="UTF-8" standalone="no"?>
<svg width="205px" height="54px" viewBox="0 0 205 54" version="1.1" xmlns="http://www.w3.org/2000/svg" xmlns:xlink="http://www.w3.org/1999/xlink" xmlns:sketch="http://www.bohemiancoding.com/sketch/ns">
    <!-- Generator: Sketch 3.0.3 (7891) - http://www.bohemiancoding.com/sketch -->
    <title>gopro_logo</title>
    <desc>Created with Sketch.</desc>
    <defs></defs>
    <g id="Page-1" stroke="none" stroke-width="1" fill="none" fill-rule="evenodd" sketch:type="MSPage">
        <g id="gopro_logo" sketch:type="MSLayerGroup" transform="translate(0.000000, 1.000000)">
            <path d="M42.6,20.4 C42.6,22.9 41,24.8 37.9,26 C35.5,27 32.6,27.4 29.1,27.4 L14.9,27.4 C11.2,27.4 8,27 5.5,26.1 C2,24.9 0.2,23 0.2,20.5 L0.2,6.7 C0.2,4.2 2,2.4 5.6,1.2 C8.4,0.3 11.5,-0.1 14.9,-0.1 L20.5,-0.1 C22,-0.1 22.8,0.6 22.8,1.9 C22.8,3.3 22,4 20.5,4 L18.8,4 L18.5,4 L17.3,4 L16.5,4 C9.8,4 6.4,4.9 6.4,6.8 L6.4,20.6 C6.4,22.5 9.2,23.4 14.9,23.4 L29.1,23.4 C30.4,23.4 31.9,23.2 33.4,22.8 C35.3,22.3 36.3,21.6 36.3,20.7 L36.3,17.8 L27.5,17.8 C26.3,17.8 25.4,16.8 25.4,15.6 C25.4,14.4 26.4,13.4 27.5,13.4 L38.1,13.4 C38.6,13.3 39.4,13.4 40.4,13.4 C41.9,13.4 42.6,14 42.6,15.2 L42.6,20.4" id="Shape" fill="#FFFFFF" sketch:type="MSShapeGroup"></path>
            <path d="M79.6,20.6 L79.6,12.2 C79.6,10.5 77.2,9.6 72.3,9.6 L62.6,9.6 C60.8,9.6 59.2,9.8 57.7,10.2 C55.7,10.8 54.7,11.5 54.7,12.6 L54.7,20.6 C54.7,21.6 55.7,22.4 57.8,22.9 C59.2,23.2 60.8,23.4 62.7,23.4 L72.4,23.4 C74,23.4 75.5,23.2 76.9,22.9 C78.6,22.3 79.6,21.6 79.6,20.6 L79.6,20.6 Z M85.6,20.6 C85.6,23.1 84.1,24.9 81,26 C78.9,26.9 76,27.3 72.4,27.3 L62.5,27.3 C59.2,27.3 56.3,26.8 53.6,26 C50.3,24.8 48.7,23 48.7,20.6 L48.7,12.6 C48.7,10.2 50.3,8.3 53.6,7.1 C56,6.1 59,5.7 62.5,5.7 L72.4,5.7 C81.2,5.7 85.6,8 85.6,12.6 L85.6,20.6 L85.6,20.6 Z" id="Shape" fill="#FFFFFF" sketch:type="MSShapeGroup"></path>
            <path d="M157.7,7.9 C157.7,9.1 156.8,9.7 155,9.7 L154,9.7 L152.9,9.7 C148.3,9.7 146.1,10.6 146.1,12.4 L146.1,25.6 C146.1,26.5 145.6,27 144.8,27.3 C144.5,27.4 143.6,27.4 142.2,27.4 C140.8,27.4 140.1,26.8 140.1,25.6 L140.1,12.4 C140.1,9.5 141.9,7.6 145.5,6.6 C147.7,5.9 151,5.7 155.4,5.7 C156.9,5.6 157.7,6.4 157.7,7.9" id="Shape" fill="#FFFFFF" sketch:type="MSShapeGroup"></path>
            <path d="M192.7,20.6 L192.7,12.2 C192.7,10.5 190.3,9.6 185.4,9.6 L175.7,9.6 C173.9,9.6 172.3,9.8 170.8,10.2 C168.8,10.8 167.8,11.5 167.8,12.6 L167.8,20.6 C167.8,21.6 168.8,22.4 170.9,22.9 C172.3,23.2 173.9,23.4 175.8,23.4 L185.5,23.4 C187.1,23.4 188.6,23.2 190,22.9 C191.7,22.3 192.7,21.6 192.7,20.6 L192.7,20.6 Z M198.7,20.6 C198.7,23.1 197.2,24.9 194.1,26 C192,26.9 189.1,27.3 185.5,27.3 L175.6,27.3 C172.3,27.3 169.4,26.8 166.7,26 C163.4,24.8 161.8,23 161.8,20.6 L161.8,12.6 C161.8,10.2 163.4,8.3 166.7,7.1 C169.1,6.1 172.1,5.7 175.6,5.7 L185.5,5.7 C194.3,5.7 198.7,8 198.7,12.6 L198.7,20.6 L198.7,20.6 Z" id="Shape" fill="#FFFFFF" sketch:type="MSShapeGroup"></path>
            <path d="M128.5,9.9 L128.5,6.1 C128.5,4.5 125.8,3.7 120.3,3.7 L98.1,3.7 L98.1,13.3 L120.3,13.3 C125.7,13.3 128.5,12.1 128.5,9.9 L128.5,9.9 Z M134.7,10.1 C134.7,12.8 133,14.8 129.5,16.1 C126.8,17 123.6,17.4 119.9,17.4 L98.1,17.4 L98.1,25.5 C98.1,26.4 97.7,26.9 96.8,27.2 C96.6,27.3 95.6,27.3 94.1,27.3 C92.7,27.3 91.9,26.7 91.9,25.5 L91.9,1.4 C91.9,0.2 92.7,-0.4 94.1,-0.4 L120.3,-0.4 C123.8,-0.4 126.8,3.55271368e-15 129.3,0.8 C133,1.9 134.7,3.6 134.7,5.8 L134.7,10.1 L134.7,10.1 Z" id="Shape" fill="#FFFFFF" sketch:type="MSShapeGroup"></path>
            <path d="M27,46.6 C26.7,46 25.9,45.8 24.7,46 C24.1,46.3 23.8,46.7 24,47.3 C24.2,48 24.9,48.2 26.4,47.9 C26.9,47.7 27.1,47.3 27,46.6 M22.6,44.1 L24.4,44.1 C24.4,43.5 24.8,43.1 25.7,43.1 C26.5,43.1 26.9,43.4 27,43.8 L27,45.5 C26.6,45 25.8,44.8 24.7,44.7 C23,44.9 22.1,45.7 22.2,47.1 C22.3,48.4 23.2,49 24.9,49.1 C25.8,49.1 26.5,48.9 27,48.3 L27,49.1 L28.7,49.1 L28.7,43.6 C28.3,42.6 27.6,42.1 26.6,42.1 L24,42.1 C23,42.3 22.5,43 22.6,44.1 M17,44.8 C17.1,43.7 16.6,43.2 15.6,43.2 C14.4,43.2 13.9,43.7 14,44.8 L17,44.8 M14.6,42 L16.4,42 C17.7,42 18.8,43 18.8,44.3 L18.8,45.8 L14,45.8 C13.8,47.2 14.2,47.9 15.1,47.9 L16.1,47.9 C16.7,48 17,47.6 17,46.8 L18.7,46.8 C18.7,48.1 17.6,49.1 16.3,49.1 L14.5,49.1 C13.2,49.1 12.1,48.1 12.1,46.8 L12.1,44.3 C12.3,43 13.3,42 14.6,42 M5.7,44.7 L5.7,47.5 L8.8,47.5 C9.7,47.5 10.1,47.1 10.1,46.2 C10.1,45.4 9.7,45 9,44.8 C7.8,44.7 6.8,44.7 5.7,44.7 M5.7,40.7 L5.7,43.2 L8.6,43.2 C9.4,43.2 9.8,42.8 9.8,42 C9.8,41.3 9.4,40.9 8.8,40.7 C7.7,40.8 6.7,40.8 5.7,40.7 M3.8,39.1 L3.8,49 L9.6,49 C11.2,49.1 12,48.2 12,46.4 C12.1,45.1 11.5,44.3 10.4,43.9 C11.3,43.7 11.8,43 11.8,41.6 C11.7,40 10.8,39.1 9.1,39 C7.3,39 5.5,39 3.8,39.1" id="Shape" fill="#FFFFFF" sketch:type="MSShapeGroup"></path>
            <path d="M67.9,43.5 C67.6,44.6 67.8,45.9 68.1,46.4 C68.4,46.9 69.2,47.3 69.9,47.3 C70.6,47.3 71.5,47 72,46.5 C72.5,46 73.1,44.9 73.4,43.7 C73.6,42.7 73.5,41.7 73.2,41.2 C72.9,40.7 72.1,40.1 71.5,40.1 C70.9,40.1 69.9,40.4 69.4,40.9 C68.8,41.3 68.1,42.3 67.9,43.5 M65,43.6 C65.4,41.8 66.5,40.3 67.7,39.3 C68.9,38.3 70.3,38.1 72,38.1 C73.7,38.1 74.9,38.8 75.6,39.8 C76.3,40.8 76.6,42.1 76.2,43.9 C75.9,45.2 75.4,46.2 74.8,47 C74.2,47.8 73.4,48.3 72.5,48.8 C71.6,49.3 70.6,49.4 69.5,49.4 C68.4,49.4 67.5,49.2 66.8,48.8 C66.2,48.4 65.4,47.8 65.1,46.9 C64.9,46 64.7,44.8 65,43.6" id="Shape" fill="#FFFFFF" sketch:type="MSShapeGroup"></path>
            <path d="M53.6,49 L56,38.2 L60.9,38.2 C61,38.2 64.5,38 64.4,41 C64.3,43.2 63.3,43.4 61.4,44.4 C62.4,46 62.7,46.9 64,48.9 L60.8,48.9 C60.4,47.9 58.9,45 58.9,45 L57.2,45 L56.3,49 L53.6,49 L53.6,49 Z M57.7,43.1 L59.6,43.1 C61.4,43.1 62.2,40.3 60.4,40.3 L58.4,40.3 L57.7,43.1 L57.7,43.1 Z" id="Shape" fill="#FFFFFF" sketch:type="MSShapeGroup"></path>
            <path d="M46.6,38.3 L54.4,38.3 L54,40.3 L49,40.3 L48.5,42.2 L53.2,42.2 L52.7,44.3 L48,44.3 L47.4,47 L52.4,46.9 L52.1,49 L44.2,48.9 L46.6,38.3 Z" id="Shape" fill="#FFFFFF" sketch:type="MSShapeGroup"></path>
            <path d="M35,38.2 L37.8,38.2 L36.9,42.2 L40.9,42.3 L41.8,38.3 L44.6,38.3 L42.2,49 L39.4,49 L40.5,44.3 L36.4,44.3 L35.3,49 L32.5,49 L35,38.2 Z" id="Shape" fill="#FFFFFF" sketch:type="MSShapeGroup"></path>
            <path d="M76.2,49 L78.8,49 L79.5,46.2 L76.9,46.2 L76.2,49 Z" id="Shape" fill="#FFFFFF" sketch:type="MSShapeGroup"></path>
            <path d="M201.4,27.2 L202.1,27.2 L202.4,27.2 C202.5,27.2 202.5,27.1 202.6,27.1 C202.6,27 202.7,27 202.7,26.9 C202.7,26.8 202.7,26.7 202.6,26.6 C202.5,26.5 202.4,26.5 202.2,26.5 L201.4,26.5 L201.4,27.2 L201.4,27.2 Z M201,28.5 L201,26.1 L202.1,26.1 C202.3,26.1 202.5,26.1 202.6,26.2 C202.7,26.2 202.8,26.3 202.9,26.4 C203,26.5 203,26.6 203,26.8 C203,27 202.9,27.1 202.8,27.2 C202.7,27.3 202.5,27.4 202.3,27.4 C202.4,27.4 202.5,27.5 202.5,27.5 C202.6,27.6 202.7,27.7 202.8,27.8 L203.2,28.5 L202.8,28.5 L202.5,28 C202.4,27.9 202.3,27.7 202.3,27.7 C202.2,27.6 202.2,27.6 202.1,27.5 L202,27.4 L201.8,27.4 L201.4,27.4 L201.4,28.5 L201,28.5 L201,28.5 Z M201.9,25.3 C203.1,25.3 204.1,26.3 204.1,27.5 C204.1,28.7 203.1,29.7 201.9,29.7 C200.7,29.7 199.7,28.7 199.7,27.5 C199.7,26.3 200.7,25.3 201.9,25.3 L201.9,25.3 Z M201.9,24.9 C203.3,24.9 204.4,26 204.4,27.4 C204.4,28.8 203.3,29.9 201.9,29.9 C200.5,29.9 199.4,28.8 199.4,27.4 C199.4,26 200.5,24.9 201.9,24.9 L201.9,24.9 Z" id="Shape" fill="#FFFFFF" sketch:type="MSShapeGroup"></path>
            <rect id="Rectangle-path" fill="#00AEEF" sketch:type="MSShapeGroup" x="87" y="34" width="23.8" height="18.2"></rect>
            <rect id="Rectangle-path" fill="#00AEEF" sketch:type="MSShapeGroup" x="115" y="34" width="23.8" height="18.2"></rect>
            <rect id="Rectangle-path" fill="#005DAC" sketch:type="MSShapeGroup" x="144" y="34" width="23.8" height="18.2"></rect>
            <rect id="Rectangle-path" fill="#FFFFFF" sketch:type="MSShapeGroup" x="174" y="34" width="23.8" height="18.2"></rect>
        </g>
    </g>
</svg>